<svg xmlns="http://www.w3.org/2000/svg" width="90.947" height="84.38" viewBox="0 0 90.947 84.38">
  <path id="Path_824" data-name="Path 824" d="M79.973,16.653H66.528A4.341,4.341,0,0,1,62.2,12.747,10.171,10.171,0,0,0,52.057,3.589H44.136a10.171,10.171,0,0,0-10.144,9.158,4.341,4.341,0,0,1-4.327,3.906H16.221a13.6,13.6,0,0,0-13.6,13.6V74.371a13.6,13.6,0,0,0,13.6,13.6H79.973a13.6,13.6,0,0,0,13.6-13.6V30.25A13.6,13.6,0,0,0,79.973,16.653ZM40.757,13.44a3.4,3.4,0,0,1,3.379-3.059h7.921a3.4,3.4,0,0,1,3.379,3.059,11.112,11.112,0,0,0,.87,3.212H39.887a11.113,11.113,0,0,0,.87-3.212ZM16.221,23.452H79.973a6.8,6.8,0,0,1,6.8,6.8V47.064A81.885,81.885,0,0,1,48.1,56.2,81.82,81.82,0,0,1,9.422,47.06V30.25a6.8,6.8,0,0,1,6.8-6.8ZM79.973,81.17H16.221a6.8,6.8,0,0,1-6.8-6.8V54.716A89.666,89.666,0,0,0,44.7,62.922v1.917a3.4,3.4,0,0,0,6.8,0V62.922a89.666,89.666,0,0,0,35.275-8.206V74.371A6.8,6.8,0,0,1,79.973,81.17Z" transform="translate(-2.623 -3.589)" fill="#3792fc"/>
</svg>
