<svg xmlns="http://www.w3.org/2000/svg" width="26.492" height="24.033" viewBox="0 0 26.492 24.033">
  <g id="Group_27047" data-name="Group 27047" transform="translate(-8.672 -10.388)">
    <g id="Group_191" data-name="Group 191" transform="translate(8.672 10.388)">
      <path id="Path_1080" data-name="Path 1080" d="M552.586,543.756c.615-1.827,1.372-3.709,1.5-4.229s.65-.824,1.258-1.3,11.061-8.762,12.71-10.02,1.735-1.388,3.427-.347,3.383,2.082,4.251,2.559,1.041.477,1.822,2.212.868,2.212,1.085,2.6.651,1.128-.607,2.126-13.36,12.145-14.271,13.013a2.321,2.321,0,0,1-3.253.3c-1.475-.868-6.116-4.165-6.81-4.6S551.971,545.581,552.586,543.756Z" transform="translate(-552.398 -527.161)" fill="#fbb03b"/>
      <path id="Path_1081" data-name="Path 1081" d="M583.794,537.125c5.449-4.978,5.622-4.611,6.119-5.946a2.77,2.77,0,0,0-1.048-.762c-.868-.477-2.559-1.518-4.251-2.559s-1.778-.911-3.427.347-12.1,9.543-12.71,10.02c-.131.1-.257.2-.377.288l.054.091C570.037,537.8,582.145,536.789,583.794,537.125Z" transform="translate(-565.53 -527.161)" fill="#fcee21" opacity="0.5"/>
      <path id="Path_1082" data-name="Path 1082" d="M578.639,553.542c-.217-.39-.3-.867-1.085-2.6-.569-1.265-.816-1.608-1.244-1.885.305,1-2,2.954-4.336,5.036-2.455,2.186-7.77,7.164-9.283,7.7s-4.743-1.782-6.559-2.758-1.094-2.192-1.143-2.153c-.607.477-.77.435-.9.955s-.887,2.4-1.5,4.229.418,1.887,1.112,2.32,5.335,3.731,6.81,4.6a2.321,2.321,0,0,0,3.253-.3c.911-.868,13.013-12.016,14.271-13.013S578.856,553.932,578.639,553.542Z" transform="translate(-552.398 -545.47)" fill="#ed861f" opacity="0.5"/>
      <path id="Path_1083" data-name="Path 1083" d="M628.315,561.385c-.217-.39-.3-.867-1.085-2.6-.056-.126-.109-.24-.16-.349-1.687-.134-10.091,8-12.131,9.7-2.119,1.766-2.775,3.128-2.775,4.49,0,1.225-.244,3.347-.367,4.716a2.459,2.459,0,0,0,1.639-.82c.911-.868,13.013-12.016,14.271-13.013S628.531,561.775,628.315,561.385Z" transform="translate(-602.073 -553.313)" fill="#ed861f" opacity="0.5"/>
      <path id="Path_1084" data-name="Path 1084" d="M635.112,558.772c-1.616.821-5.7,5.059-11.866,10.163-.825.683-.269.774.992-.286S635.112,558.772,635.112,558.772Z" transform="translate(-611.322 -553.597)" fill="#fff"/>
      <path id="Path_1085" data-name="Path 1085" d="M565.151,597.073c-.4.5.126,1.488,1.135,1.993s4.894,2.851,5.65,2.951a3.42,3.42,0,0,0,1.514-.2,3.81,3.81,0,0,0-.883,2.094c-.05.656-.227,3.607-.328,3.658s-.05-3.128-.075-3.784a1.5,1.5,0,0,0-.858-1.514c-.706-.353-5.979-3.33-6.433-3.683S564.269,597.8,565.151,597.073Z" transform="translate(-562.528 -585.628)" fill="#fff"/>
    </g>
    <path id="Path_1086" data-name="Path 1086" d="M645.51,570.764a1.892,1.892,0,0,1-3.784,0,1.892,1.892,0,0,1,3.784,0Z" transform="translate(-618.432 -551.657)" fill="#fff"/>
    <path id="Path_1087" data-name="Path 1087" d="M626.67,582.914a1.1,1.1,0,1,1-2.2,0,1.1,1.1,0,0,1,2.2,0Z" transform="translate(-603.998 -562.479)" fill="#fff"/>
    <path id="Path_1088" data-name="Path 1088" d="M590.035,627.122a1.184,1.184,0,0,1-2.368,0,1.184,1.184,0,0,1,2.368,0Z" transform="translate(-573.222 -599.381)" fill="#fff"/>
  </g>
</svg>
