<svg xmlns="http://www.w3.org/2000/svg" width="20.793" height="22.42" viewBox="0 0 20.793 22.42">
  <g id="Group_27048" data-name="Group 27048" transform="translate(-345.261 22.42)">
    <path id="Path_1112" data-name="Path 1112" d="M302.131,158.532l-7.693-5.107a3.455,3.455,0,0,0-3.62,0l-7.693,5.107a1.811,1.811,0,0,0-.893,1.479v14.262c0,.585.644,1.06,1.439,1.06h17.915c.795,0,1.439-.474,1.439-1.06V160.011A1.811,1.811,0,0,0,302.131,158.532Z" transform="translate(63.029 -175.332)" fill="#3792fc"/>
    <path id="Path_1124" data-name="Path 1124" d="M13.945,7.963v.5a5.473,5.473,0,1,1-3.245-5" transform="translate(347.185 -18.146)" fill="none" stroke="#fff" stroke-linecap="round" stroke-linejoin="round" stroke-width="1.5"/>
    <path id="Path_1125" data-name="Path 1125" d="M20.614,6l-5.472,5.478L13.5,9.836" transform="translate(340.516 -20.057)" fill="none" stroke="#fff" stroke-linecap="round" stroke-linejoin="round" stroke-width="1.5"/>
  </g>
</svg>
