<svg xmlns="http://www.w3.org/2000/svg" xmlns:xlink="http://www.w3.org/1999/xlink" width="19.108" height="25.864" viewBox="0 0 19.108 25.864">
  <defs>
    <linearGradient id="linear-gradient" y1="0.5" x2="1" y2="0.5" gradientUnits="objectBoundingBox">
      <stop offset="0" stop-color="#c5cce9"/>
      <stop offset="1" stop-color="#a2afdb"/>
    </linearGradient>
    <linearGradient id="linear-gradient-3" y1="0.5" x2="1" y2="0.5" gradientUnits="objectBoundingBox">
      <stop offset="0" stop-color="#474777"/>
      <stop offset="1" stop-color="#393963"/>
    </linearGradient>
    <linearGradient id="linear-gradient-4" x1="-0.097" y1="0.5" x2="1" y2="0.5" xlink:href="#linear-gradient"/>
    <linearGradient id="linear-gradient-5" x1="-1.053" y1="0.5" x2="3.941" y2="0.5" gradientUnits="objectBoundingBox">
      <stop offset="0" stop-color="#a2afdb"/>
      <stop offset="1" stop-color="#c5cce9"/>
    </linearGradient>
    <linearGradient id="linear-gradient-6" x1="0" y1="0.5" x2="1.088" y2="0.5" xlink:href="#linear-gradient"/>
    <linearGradient id="linear-gradient-7" x1="-1.374" y1="0.5" x2="1.247" y2="0.5" xlink:href="#linear-gradient-5"/>
    <linearGradient id="linear-gradient-9" x1="-0.245" y1="32.548" x2="0.753" y2="32.548" xlink:href="#linear-gradient-3"/>
  </defs>
  <g id="Group_27048" data-name="Group 27048" transform="translate(-641.25 404)">
    <path id="Path_1071" data-name="Path 1071" d="M398.949,288.61l-.058-.005v-.353l-1.982.177-1.982-.177v.353l-.058.005s-8.56,6.72-7.408,16.761c0,0-.238,3.853,9.447,3.7,9.686.152,9.447-3.7,9.447-3.7C407.508,295.33,398.949,288.61,398.949,288.61Z" transform="translate(253.895 -687.214)" fill="url(#linear-gradient)"/>
    <path id="Path_1072" data-name="Path 1072" d="M413.735,268.1a2.653,2.653,0,0,1-1.971-.585.5.5,0,0,0-.646,0,2.653,2.653,0,0,1-1.971.585c-1.518-.144-2.362-.4-2.632.153l3.138,5.379,1.788,1.561,1.788-1.561,3.138-5.379C416.1,267.7,415.253,267.953,413.735,268.1Z" transform="translate(239.363 -671.394)" fill="url(#linear-gradient)"/>
    <g id="Group_185" data-name="Group 185" transform="translate(647.575 -393.434)">
      <g id="Group_184" data-name="Group 184" transform="translate(0 0)">
        <path id="Path_1073" data-name="Path 1073" d="M417.416,320.324v1.242h-1.109v-1.209a5.259,5.259,0,0,1-2.762-.888l.61-1.353a4.488,4.488,0,0,0,2.152.788v-1.853c-1.232-.3-2.607-.71-2.607-2.3,0-1.176.854-2.185,2.607-2.385v-1.232h1.109v1.21a5.015,5.015,0,0,1,2.252.677l-.555,1.365a4.541,4.541,0,0,0-1.7-.577V315.7c1.232.289,2.585.7,2.585,2.263C420,319.114,419.158,320.113,417.416,320.324Zm-1.109-4.9v-1.576c-.588.133-.821.455-.821.821C415.485,315.054,415.818,315.265,416.306,315.421Zm1.908,2.673c0-.388-.322-.6-.8-.765v1.531C417.97,318.738,418.214,318.449,418.214,318.094Z" transform="translate(-413.544 -311.138)" fill="url(#linear-gradient-3)"/>
      </g>
    </g>
    <path id="Path_1074" data-name="Path 1074" d="M416.694,269.931a2.761,2.761,0,0,1-1.027.09c-.2-.019-.381-.039-.555-.059l1.973,4.395Z" transform="translate(232.842 -673.318)" fill="url(#linear-gradient-4)"/>
    <path id="Path_1075" data-name="Path 1075" d="M416.694,269.931a2.761,2.761,0,0,1-1.027.09c-.2-.019-.381-.039-.555-.059l1.973,4.395Z" transform="translate(232.842 -673.318)" fill="url(#linear-gradient-5)"/>
    <path id="Path_1076" data-name="Path 1076" d="M428.58,274.43l3.073-4.875c-.426.021-.989.113-1.7.181a2.713,2.713,0,0,1-1.253-.166l-.8,4.5Z" transform="translate(223.147 -673.033)" fill="url(#linear-gradient-6)"/>
    <path id="Path_1077" data-name="Path 1077" d="M428.58,274.43l3.073-4.875c-.426.021-.989.113-1.7.181a2.713,2.713,0,0,1-1.253-.166l-.8,4.5Z" transform="translate(223.147 -673.033)" fill="url(#linear-gradient-7)"/>
    <g id="Group_188" data-name="Group 188" transform="translate(647.958 -399.374)">
      <g id="Group_186" data-name="Group 186" transform="translate(0.038 0)">
        <path id="Path_1078" data-name="Path 1078" d="M415.7,287.729a.412.412,0,0,1-.03-.822l4.856-.358a.411.411,0,1,1,.06.821l-4.856.358Z" transform="translate(-415.285 -286.548)" fill="url(#linear-gradient-3)"/>
      </g>
      <g id="Group_187" data-name="Group 187" transform="translate(0 0.771)">
        <path id="Path_1079" data-name="Path 1079" d="M420.407,290.656H420.4l-4.868-.093a.412.412,0,0,1,.008-.823h.008l4.868.093a.412.412,0,0,1-.008.823Z" transform="translate(-415.127 -289.74)" fill="url(#linear-gradient-9)"/>
      </g>
    </g>
  </g>
</svg>
